<svg width="387" height="494" viewBox="0 0 387 494" fill="none" xmlns="http://www.w3.org/2000/svg">
<path d="M0.499896 8C0.499896 12.4183 4.08162 16 8.4999 16C12.9182 16 16.4999 12.4183 16.4999 8C16.4999 3.58172 12.9182 0 8.4999 0C4.08162 0 0.499896 3.58172 0.499896 8ZM8.4999 225L9.99831 225.069L9.9999 225.034V225H8.4999ZM131.5 274.5L131.524 273L131.517 273L131.5 274.5ZM370.5 486C370.5 490.418 374.082 494 378.5 494C382.918 494 386.5 490.418 386.5 486C386.5 481.582 382.918 478 378.5 478C374.082 478 370.5 481.582 370.5 486ZM6.9999 8V225H9.9999V8H6.9999ZM7.00148 224.931C6.33391 239.451 7.11254 250.03 10.4847 257.642C13.9281 265.415 19.9882 269.92 29.2999 272.496C38.5059 275.042 51.0425 275.75 67.6787 275.916C76.0177 275.999 85.433 275.944 96.0216 275.907C106.615 275.87 118.394 275.85 131.483 276L131.517 273C118.406 272.85 106.608 272.87 96.011 272.907C85.4095 272.945 76.0217 272.998 67.7086 272.916C51.0406 272.75 38.8772 272.033 30.0998 269.604C21.4282 267.205 16.2217 263.185 13.2276 256.427C10.1623 249.507 9.33255 239.549 9.99831 225.069L7.00148 224.931ZM131.5 274.5C131.476 276 131.476 276 131.477 276C131.478 276 131.478 276 131.48 276C131.482 276 131.485 276 131.49 276C131.499 276 131.512 276 131.53 276.001C131.566 276.001 131.619 276.002 131.69 276.003C131.831 276.005 132.041 276.009 132.318 276.013C132.872 276.021 133.693 276.033 134.759 276.048C136.892 276.077 140.009 276.118 143.943 276.164C151.813 276.255 162.957 276.365 176.054 276.437C202.247 276.583 236.261 276.583 267.528 276L267.472 273C236.239 273.583 202.253 273.583 176.071 273.438C162.981 273.365 151.843 273.255 143.978 273.164C140.046 273.119 136.932 273.078 134.801 273.048C133.736 273.033 132.916 273.021 132.363 273.013C132.086 273.009 131.876 273.006 131.736 273.003C131.665 273.002 131.612 273.002 131.577 273.001C131.559 273.001 131.546 273.001 131.537 273C131.533 273 131.529 273 131.527 273C131.526 273 131.525 273 131.524 273C131.524 273 131.524 273 131.5 274.5ZM267.528 276C298.877 275.415 325.816 275.505 345.237 301.4C355.012 314.433 362.968 334.117 368.47 363.836C373.971 393.543 377 433.172 377 486H380C380 433.078 376.967 393.248 371.42 363.289C365.876 333.341 357.8 313.15 347.638 299.6C327.184 272.328 298.623 272.419 267.472 273L267.528 276Z" fill="#32CD32"/>
</svg>
